<?xml version="1.0" encoding="UTF-8" standalone="no"?>
<svg
   id="aff77bde-1ba2-4ee3-bd01-c410ab368791"
   data-name="Layer 1"
   viewBox="0 0 304.2124 60.010542"
   version="1.1"
   sodipodi:docname="logo_full_dark.svg"
   width="304.2124"
   height="60.01054"
   inkscape:version="1.1.2 (0a00cf5339, 2022-02-04)"
   xmlns:inkscape="http://www.inkscape.org/namespaces/inkscape"
   xmlns:sodipodi="http://sodipodi.sourceforge.net/DTD/sodipodi-0.dtd"
   xmlns="http://www.w3.org/2000/svg"
   xmlns:svg="http://www.w3.org/2000/svg"
   xmlns:rdf="http://www.w3.org/1999/02/22-rdf-syntax-ns#"
   xmlns:cc="http://creativecommons.org/ns#"
   xmlns:dc="http://purl.org/dc/elements/1.1/">
  <defs
     id="defs926" />
  <sodipodi:namedview
     id="namedview924"
     pagecolor="#505050"
     bordercolor="#eeeeee"
     borderopacity="1"
     inkscape:pageshadow="0"
     inkscape:pageopacity="0"
     inkscape:pagecheckerboard="0"
     showgrid="false"
     fit-margin-top="0"
     fit-margin-left="0"
     fit-margin-right="0"
     fit-margin-bottom="0"
     inkscape:zoom="3.106283"
     inkscape:cx="162.57372"
     inkscape:cy="35.09017"
     inkscape:window-width="1920"
     inkscape:window-height="1054"
     inkscape:window-x="1920"
     inkscape:window-y="26"
     inkscape:window-maximized="1"
     inkscape:current-layer="aff77bde-1ba2-4ee3-bd01-c410ab368791" />
  <title
     id="title899">logo_full_dark</title>
  <path
     d="m 62.129999,46.680001 a 19.19,19.19 0 0 1 -7.16,-1.36 15,15 0 0 1 -5.71,-3.92 l 2.24,-1.85 a 14.4,14.4 0 0 0 4.79,3.23 14.84,14.84 0 0 0 5.84,1.19 12.17,12.17 0 0 0 7.22,-2 5.94,5.94 0 0 0 2.74,-5 5,5 0 0 0 -1.65,-3.82 9.47,9.47 0 0 0 -5.34,-2 l -5.35,-0.66 a 12.42,12.42 0 0 1 -7,-2.71 7.47,7.47 0 0 1 -2.41,-5.81 8,8 0 0 1 1.46,-4.75 9.61,9.61 0 0 1 4,-3.2 14.82,14.82 0 0 1 6,-1.16 20.31,20.31 0 0 1 6.41,1.01 22.41,22.41 0 0 1 6.14,3.24 l -1.72,2.37 a 23.29,23.29 0 0 0 -5.31,-2.93 15.13,15.13 0 0 0 -5.38,-1 11.14,11.14 0 0 0 -6.27,1.62 5.36,5.36 0 0 0 -2.46,4.82 4.92,4.92 0 0 0 1.62,3.88 9.59,9.59 0 0 0 5.25,1.91 l 5.28,0.66 q 4.89,0.6 7.26,2.84 a 7.54,7.54 0 0 1 2.38,5.74 8.15,8.15 0 0 1 -1.65,5 11,11 0 0 1 -4.52,3.46 16.58,16.58 0 0 1 -6.7,1.2 z"
     fill="#242124"
     id="path901" />
  <path
     d="m 81.269999,60.010001 a 11.94,11.94 0 0 1 -1.46,-0.14 l -1.25,-0.17 v -2.83 a 11.06,11.06 0 0 0 2.57,0.26 c 2.78,0 5,-1.76 6.54,-5.28 l 2.64,-5.98 -13.53,-32.33 h 3.3 l 11.81,28.85 12.320001,-28.85 h 3.24 l -16.900001,38.55 a 22.23,22.23 0 0 1 -2.6,4.59 8.82,8.82 0 0 1 -3,2.54 8.52,8.52 0 0 1 -3.68,0.79 z"
     fill="#242124"
     id="path903" />
  <path
     d="m 112.42,46.020001 v -32.48 h 2.9 v 4.56 a 12.79,12.79 0 0 1 10.76,-5.23 13.27,13.27 0 0 1 6.5,1.55 11,11 0 0 1 4.36,4.36 13.27,13.27 0 0 1 1.55,6.5 v 20.74 h -2.91 v -19.94 a 10.64,10.64 0 0 0 -2.7,-7.69 9.88,9.88 0 0 0 -7.46,-2.8 11.54,11.54 0 0 0 -5.94,1.55 10.88,10.88 0 0 0 -4.16,4.46 v 24.42 z"
     fill="#242124"
     id="path905" />
  <path
     d="m 157.1,46.680001 a 15,15 0 0 1 -6.27,-1.23 9.81,9.81 0 0 1 -4.22,-3.43 9.27,9.27 0 0 1 2,-12.34 q 3.5,-2.73 9.3,-2.74 a 18.91,18.91 0 0 1 10.3,2.84 v -5.41 c 0,-3 -0.82,-5.23 -2.44,-6.7 -1.62,-1.47 -4,-2.21 -7,-2.21 a 16.57,16.57 0 0 0 -4.69,0.72 33.62,33.62 0 0 0 -5.61,2.38 l -1.26,-2.57 a 30.58,30.58 0 0 1 5.94,-2.35 22.12,22.12 0 0 1 5.68,-0.76 c 3.91,0 6.94,0.94 9.07,2.81 2.13,1.87 3.2,4.59 3.2,8.15 v 22.18 h -2.89 v -3.63 a 16.63,16.63 0 0 1 -5,3.16 16,16 0 0 1 -6.11,1.13 z m -9.11,-9.81 a 6.34,6.34 0 0 0 2.64,5.22 10.58,10.58 0 0 0 6.67,2 14.41,14.41 0 0 0 6.14,-1.22 15.49,15.49 0 0 0 4.77,-3.45 v -6.74 a 15.31,15.31 0 0 0 -4.75,-2.44 20,20 0 0 0 -5.88,-0.79 11,11 0 0 0 -6.93,2.05 6.43,6.43 0 0 0 -2.66,5.37 z"
     fill="#242124"
     id="path907" />
  <path
     d="m 179.94,59.480001 v -45.94 h 2.9 v 3.9 a 16.1,16.1 0 0 1 19.37,-2.35 16.71,16.71 0 0 1 5.81,6.11 17.23,17.23 0 0 1 2.19,8.58 17.34,17.34 0 0 1 -2.14,8.55 16.3,16.3 0 0 1 -5.81,6.1 15.38,15.38 0 0 1 -8.22,2.25 15,15 0 0 1 -6,-1.23 19,19 0 0 1 -5.18,-3.26 v 17.29 z m 14.05,-15.61 a 12.29,12.29 0 0 0 6.7,-1.88 13.43,13.43 0 0 0 4.75,-5.08 14.63,14.63 0 0 0 1.77,-7.13 14.63,14.63 0 0 0 -1.75,-7.16 13.43,13.43 0 0 0 -4.75,-5.08 12.29,12.29 0 0 0 -6.7,-1.88 14.29,14.29 0 0 0 -6.56,1.48 11.83,11.83 0 0 0 -4.59,3.93 v 17.42 a 13.32,13.32 0 0 0 4.69,3.86 13.63,13.63 0 0 0 6.44,1.52 z"
     fill="#242124"
     id="path909" />
  <path
     d="m 226.86,46.680001 a 19.23,19.23 0 0 1 -7.16,-1.36 15,15 0 0 1 -5.71,-3.92 l 2.22,-1.85 a 14.4,14.4 0 0 0 4.79,3.23 14.88,14.88 0 0 0 5.84,1.19 12.23,12.23 0 0 0 7.23,-2 6,6 0 0 0 2.74,-5 5,5 0 0 0 -1.6,-3.82 9.51,9.51 0 0 0 -5.35,-2 l -5.35,-0.66 a 12.36,12.36 0 0 1 -7,-2.71 7.44,7.44 0 0 1 -2.41,-5.81 8,8 0 0 1 1.45,-4.75 9.64,9.64 0 0 1 4.06,-3.2 14.79,14.79 0 0 1 6,-1.16 20.25,20.25 0 0 1 6.33,1 22.27,22.27 0 0 1 6.14,3.24 l -1.72,2.37 a 22.88,22.88 0 0 0 -5.31,-2.93 15.09,15.09 0 0 0 -5.38,-1 11.14,11.14 0 0 0 -6.27,1.62 5.36,5.36 0 0 0 -2.44,4.78 4.89,4.89 0 0 0 1.61,3.93 9.56,9.56 0 0 0 5.24,1.91 l 5.28,0.66 q 4.89,0.6 7.26,2.84 a 7.54,7.54 0 0 1 2.38,5.74 8.15,8.15 0 0 1 -1.65,5 11,11 0 0 1 -4.52,3.46 16.55,16.55 0 0 1 -6.7,1.2 z"
     fill="#242124"
     id="path911" />
  <path
     d="m 260.21,46.680001 a 15.42,15.42 0 0 1 -8.18,-2.25 16.24,16.24 0 0 1 -5.82,-6.07 17.23,17.23 0 0 1 -2.14,-8.58 17.63,17.63 0 0 1 2.08,-8.58 15.88,15.88 0 0 1 5.71,-6.07 15.08,15.08 0 0 1 8.07,-2.26 13,13 0 0 1 7.52,2.25 16.09,16.09 0 0 1 5.25,6 17.73,17.73 0 0 1 1.94,8.28 v 1.17 h -27.65 a 14.5,14.5 0 0 0 2,6.77 13.68,13.68 0 0 0 4.72,4.78 12.26,12.26 0 0 0 6.5,1.75 17.27,17.27 0 0 0 5.48,-0.89 14.65,14.65 0 0 0 4.62,-2.41 l 1.69,2.3 a 19,19 0 0 1 -5.61,2.84 20.64,20.64 0 0 1 -6.18,0.97 z m -13.09,-18.88 h 24.42 a 15.1,15.1 0 0 0 -1.91,-6.11 13,13 0 0 0 -4.09,-4.38 10.13,10.13 0 0 0 -5.68,-1.65 12,12 0 0 0 -6.11,1.58 13,13 0 0 0 -4.48,4.32 14.51,14.51 0 0 0 -2.15,6.24 z"
     fill="#242124"
     id="path913" />
  <path
     d="m 291.34,46.680001 a 19.23,19.23 0 0 1 -7.13,-1.36 15,15 0 0 1 -5.71,-3.92 l 2.24,-1.85 a 14.4,14.4 0 0 0 4.79,3.23 14.88,14.88 0 0 0 5.84,1.19 12.23,12.23 0 0 0 7.23,-2 6,6 0 0 0 2.74,-5 5,5 0 0 0 -1.65,-3.82 9.51,9.51 0 0 0 -5.35,-2 l -5.35,-0.66 a 12.36,12.36 0 0 1 -7,-2.71 7.44,7.44 0 0 1 -2.41,-5.81 8,8 0 0 1 1.45,-4.75 9.64,9.64 0 0 1 4.06,-3.2 14.79,14.79 0 0 1 6,-1.16 20.25,20.25 0 0 1 6.33,1 22.27,22.27 0 0 1 6.14,3.24 l -1.72,2.37 a 23.08,23.08 0 0 0 -5.31,-2.93 15.09,15.09 0 0 0 -5.38,-1 11.14,11.14 0 0 0 -6.27,1.62 5.36,5.36 0 0 0 -2.44,4.78 4.89,4.89 0 0 0 1.61,3.93 9.52,9.52 0 0 0 5.24,1.91 l 5.28,0.66 q 4.89,0.6 7.26,2.84 a 7.54,7.54 0 0 1 2.38,5.69 8.15,8.15 0 0 1 -1.65,5 11,11 0 0 1 -4.52,3.46 16.58,16.58 0 0 1 -6.7,1.25 z"
     fill="#242124"
     id="path915" />
  <path
     d="m 25.529999,0.03000065 a 10.88,10.88 0 0 1 7.15,19.00000035 13.11,13.11 0 0 0 0.06,20.21 10.84,10.84 0 1 1 -14.43,0.05 13.28,13.28 0 0 0 0,-20.39 10.82,10.82 0 0 1 7.2,-18.90000034943374 z"
     fill="#242124"
     id="path917" />
  <circle
     cx="9.6499996"
     cy="29.120001"
     r="9.6499996"
     fill="#242124"
     id="circle919" />
  <metadata
     id="metadata1008">
    <rdf:RDF>
      <cc:Work
         rdf:about="">
        <dc:title>logo_full_dark</dc:title>
      </cc:Work>
    </rdf:RDF>
  </metadata>
</svg>
